<svg width="96" height="96" viewBox="0 0 96 96" fill="none" xmlns="http://www.w3.org/2000/svg">
  <rect width="96" height="96" rx="28" fill="#FFF7DC"/>
  <rect x="20" y="59" width="56" height="24" rx="12" fill="#D6B14B"/>
  <circle cx="48" cy="41" r="17" fill="#F7D8CA"/>
  <path d="M29 40C29 28 38 21 48 21C58 21 67 28 67 40C64 37 62 36 60 36C58 36 56 37 54 40C52 37 50 36 48 36C46 36 44 37 42 40C40 37 38 36 36 36C34 36 32 37 29 40Z" fill="#5C4332"/>
  <circle cx="41.5" cy="42.5" r="1.6" fill="#3A2A22"/>
  <circle cx="54.5" cy="42.5" r="1.6" fill="#3A2A22"/>
  <path d="M43 49C45.4 51.1 50.6 51.1 53 49" stroke="#C16D73" stroke-width="2.2" stroke-linecap="round"/>
</svg>
