<svg width="64" height="72" viewBox="0 0 64 72" fill="none" xmlns="http://www.w3.org/2000/svg" shape-rendering="crispEdges">
  <rect x="6" y="38" width="10" height="10" fill="#FFF7EA"/>
  <rect x="11" y="34" width="40" height="23" fill="#FFF7EA"/>
  <rect x="13" y="32" width="34" height="4" fill="#FFF7EA"/>
  <rect x="16" y="52" width="12" height="11" fill="#FFF7EA"/>
  <rect x="35" y="52" width="12" height="11" fill="#FFF7EA"/>
  <rect x="33" y="11" width="10" height="15" fill="#FFF7EA"/>
  <rect x="36" y="6" width="9" height="10" fill="#FFF7EA"/>
  <rect x="50" y="11" width="11" height="16" fill="#FFF7EA"/>
  <rect x="52" y="6" width="9" height="11" fill="#FFF7EA"/>
  <rect x="33" y="18" width="27" height="4" fill="#FFF7EA"/>
  <rect x="31" y="20" width="31" height="5" fill="#FFF7EA"/>
  <rect x="30" y="24" width="33" height="15" fill="#FFF7EA"/>
  <rect x="32" y="39" width="29" height="5" fill="#FFF7EA"/>
  <rect x="36" y="43" width="20" height="3" fill="#FFF7EA"/>

  <rect x="7" y="39" width="8" height="8" fill="#8D5B35"/>
  <rect x="9" y="41" width="5" height="4" fill="#D9893B"/>

  <rect x="12" y="35" width="38" height="21" fill="#8D5B35"/>
  <rect x="14" y="33" width="32" height="2" fill="#8D5B35"/>
  <rect x="14" y="37" width="34" height="17" fill="#D9893B"/>
  <rect x="18" y="38" width="27" height="12" fill="#E99D4B"/>
  <rect x="28" y="42" width="15" height="10" fill="#FFF1D7"/>
  <rect x="15" y="37" width="5" height="4" fill="#F2B160"/>
  <rect x="42" y="39" width="5" height="5" fill="#B8612E"/>

  <rect x="17" y="53" width="9" height="8" fill="#8D5B35"/>
  <rect x="36" y="53" width="9" height="8" fill="#8D5B35"/>
  <rect x="19" y="53" width="6" height="5" fill="#E99D4B"/>
  <rect x="38" y="53" width="6" height="5" fill="#FFF1D7"/>
  <rect x="17" y="59" width="10" height="3" fill="#754A2B"/>
  <rect x="36" y="59" width="10" height="3" fill="#754A2B"/>
  <rect x="20" y="58" width="2" height="2" fill="#FFF1D7"/>
  <rect x="39" y="58" width="2" height="2" fill="#D9893B"/>

  <rect x="34" y="12" width="8" height="13" fill="#8D5B35"/>
  <rect x="37" y="7" width="7" height="8" fill="#8D5B35"/>
  <rect x="38" y="15" width="3" height="8" fill="#F3B575"/>
  <rect x="51" y="12" width="9" height="14" fill="#8D5B35"/>
  <rect x="53" y="7" width="7" height="9" fill="#8D5B35"/>
  <rect x="54" y="15" width="4" height="9" fill="#F3B575"/>

  <rect x="34" y="19" width="24" height="2" fill="#8D5B35"/>
  <rect x="32" y="21" width="29" height="3" fill="#8D5B35"/>
  <rect x="31" y="24" width="31" height="15" fill="#8D5B35"/>
  <rect x="33" y="39" width="27" height="4" fill="#8D5B35"/>
  <rect x="37" y="43" width="18" height="1" fill="#8D5B35"/>
  <rect x="34" y="23" width="26" height="3" fill="#D9893B"/>
  <rect x="33" y="26" width="27" height="13" fill="#D9893B"/>
  <rect x="35" y="39" width="22" height="3" fill="#D9893B"/>
  <rect x="37" y="24" width="19" height="15" fill="#E99D4B"/>
  <rect x="39" y="39" width="14" height="2" fill="#E99D4B"/>
  <rect x="44" y="24" width="9" height="16" fill="#FFF1D7"/>
  <rect x="41" y="25" width="4" height="8" fill="#FFF1D7"/>
  <rect x="50" y="32" width="8" height="7" fill="#FFF1D7"/>
  <rect x="38" y="30" width="3" height="4" fill="#211D1A"/>
  <rect x="52" y="30" width="3" height="4" fill="#211D1A"/>
  <rect x="39" y="31" width="1" height="1" fill="#FFFFFF"/>
  <rect x="53" y="31" width="1" height="1" fill="#FFFFFF"/>
  <rect x="55" y="34" width="4" height="3" fill="#2E2119"/>
  <rect x="47" y="37" width="5" height="3" fill="#F28E8E"/>
  <rect x="39" y="36" width="4" height="2" fill="#F0A0A0"/>
  <rect x="54" y="38" width="4" height="2" fill="#F0A0A0"/>

  <rect x="28" y="38" width="14" height="4" fill="#6F9C63"/>
  <rect x="40" y="38" width="4" height="4" fill="#F5D56E"/>
  <rect x="41" y="39" width="2" height="2" fill="#FFFFFF"/>
  <rect x="22" y="42" width="3" height="2" fill="#FFF1D7"/>
  <rect x="25" y="44" width="3" height="2" fill="#FFF1D7"/>
</svg>
