<svg width="64" height="72" viewBox="0 0 64 72" fill="none" xmlns="http://www.w3.org/2000/svg" shape-rendering="crispEdges">
  <rect x="5" y="36" width="42" height="16" fill="#FFF7EA"/>
  <rect x="9" y="32" width="36" height="8" fill="#FFF7EA"/>
  <rect x="8" y="50" width="15" height="7" fill="#FFF7EA"/>
  <rect x="29" y="50" width="13" height="7" fill="#FFF7EA"/>
  <rect x="2" y="39" width="10" height="8" fill="#FFF7EA"/>

  <rect x="6" y="37" width="40" height="14" fill="#8D5B35"/>
  <rect x="10" y="33" width="34" height="5" fill="#8D5B35"/>
  <rect x="10" y="39" width="33" height="10" fill="#D9893B"/>
  <rect x="15" y="40" width="24" height="8" fill="#E99D4B"/>
  <rect x="25" y="43" width="12" height="6" fill="#FFF1D7"/>
  <rect x="13" y="37" width="5" height="4" fill="#F2B160"/>
  <rect x="38" y="39" width="5" height="5" fill="#B8612E"/>

  <rect x="9" y="51" width="14" height="5" fill="#8D5B35"/>
  <rect x="13" y="51" width="8" height="2" fill="#E99D4B"/>
  <rect x="9" y="56" width="15" height="2" fill="#754A2B"/>
  <rect x="15" y="55" width="1" height="2" fill="#FFF1D7"/>
  <rect x="30" y="51" width="13" height="5" fill="#8D5B35"/>
  <rect x="32" y="51" width="9" height="2" fill="#FFF1D7"/>
  <rect x="30" y="56" width="15" height="2" fill="#754A2B"/>
  <rect x="35" y="55" width="1" height="2" fill="#D9893B"/>
  <rect x="39" y="55" width="1" height="2" fill="#FFF1D7"/>

  <rect x="4" y="40" width="8" height="6" fill="#8D5B35"/>
  <rect x="1" y="38" width="7" height="5" fill="#8D5B35"/>
  <rect x="0" y="36" width="4" height="4" fill="#D9893B"/>
  <rect x="2" y="38" width="3" height="2" fill="#FFF1D7"/>

  <rect x="33" y="11" width="10" height="15" fill="#FFF7EA"/>
  <rect x="36" y="6" width="9" height="10" fill="#FFF7EA"/>
  <rect x="50" y="11" width="11" height="16" fill="#FFF7EA"/>
  <rect x="52" y="6" width="9" height="11" fill="#FFF7EA"/>
  <rect x="33" y="18" width="27" height="4" fill="#FFF7EA"/>
  <rect x="31" y="20" width="31" height="5" fill="#FFF7EA"/>
  <rect x="30" y="24" width="33" height="15" fill="#FFF7EA"/>
  <rect x="32" y="39" width="29" height="5" fill="#FFF7EA"/>
  <rect x="36" y="43" width="20" height="3" fill="#FFF7EA"/>

  <rect x="34" y="12" width="8" height="13" fill="#8D5B35"/>
  <rect x="37" y="7" width="7" height="8" fill="#8D5B35"/>
  <rect x="38" y="15" width="3" height="8" fill="#F3B575"/>
  <rect x="51" y="12" width="9" height="14" fill="#8D5B35"/>
  <rect x="53" y="7" width="7" height="9" fill="#8D5B35"/>
  <rect x="54" y="15" width="4" height="9" fill="#F3B575"/>

  <rect x="34" y="19" width="24" height="2" fill="#8D5B35"/>
  <rect x="32" y="21" width="29" height="3" fill="#8D5B35"/>
  <rect x="31" y="24" width="31" height="15" fill="#8D5B35"/>
  <rect x="33" y="39" width="27" height="4" fill="#8D5B35"/>
  <rect x="37" y="43" width="18" height="1" fill="#8D5B35"/>
  <rect x="34" y="23" width="26" height="3" fill="#D9893B"/>
  <rect x="33" y="26" width="27" height="13" fill="#D9893B"/>
  <rect x="35" y="39" width="22" height="3" fill="#D9893B"/>
  <rect x="37" y="24" width="19" height="15" fill="#E99D4B"/>
  <rect x="39" y="39" width="14" height="2" fill="#E99D4B"/>
  <rect x="44" y="24" width="9" height="16" fill="#FFF1D7"/>
  <rect x="41" y="25" width="4" height="8" fill="#FFF1D7"/>
  <rect x="50" y="32" width="8" height="7" fill="#FFF1D7"/>
  <rect x="28" y="38" width="14" height="4" fill="#6F9C63"/>
  <rect x="40" y="38" width="4" height="4" fill="#F5D56E"/>
  <rect x="41" y="39" width="2" height="2" fill="#FFFFFF"/>

  <rect x="38" y="29" width="4" height="5" fill="#211D1A"/>
  <rect x="52" y="29" width="4" height="5" fill="#211D1A"/>
  <rect x="39" y="30" width="1" height="1" fill="#FFFFFF"/>
  <rect x="53" y="30" width="1" height="1" fill="#FFFFFF"/>
  <rect x="47" y="34" width="5" height="3" fill="#2E2119"/>
  <rect x="48" y="37" width="3" height="1" fill="#2E2119"/>
  <rect x="46" y="38" width="7" height="2" fill="#F28E8E"/>
  <rect x="39" y="36" width="3" height="2" fill="#F0A0A0"/>
  <rect x="55" y="36" width="3" height="2" fill="#F0A0A0"/>
  <rect x="43" y="46" width="15" height="3" fill="#8D5B35"/>
  <rect x="43" y="49" width="6" height="6" fill="#8D5B35"/>
  <rect x="52" y="49" width="6" height="6" fill="#8D5B35"/>
  <rect x="44" y="50" width="4" height="3" fill="#E99D4B"/>
  <rect x="53" y="50" width="4" height="3" fill="#FFF1D7"/>
  <rect x="42" y="55" width="8" height="2" fill="#754A2B"/>
  <rect x="51" y="55" width="8" height="2" fill="#754A2B"/>
  <rect x="45" y="54" width="1" height="2" fill="#FFF1D7"/>
  <rect x="54" y="54" width="1" height="2" fill="#D9893B"/>
  <rect x="22" y="34" width="14" height="2" fill="#F2B160"/>
  <rect x="11" y="48" width="26" height="2" fill="#B8612E"/>
  <rect x="4" y="41" width="3" height="2" fill="#D9893B"/>
  <rect x="0" y="34" width="3" height="2" fill="#8D5B35"/>
</svg>
