<svg width="96" height="96" viewBox="0 0 96 96" fill="none" xmlns="http://www.w3.org/2000/svg">
  <rect width="96" height="96" rx="28" fill="#FFF0F4"/>
  <rect x="20" y="59" width="56" height="24" rx="12" fill="#D97B94"/>
  <circle cx="48" cy="41" r="17" fill="#F7D8CA"/>
  <path d="M31 38C31 27.5 39 21 48 21C57 21 65 27.5 65 38V43C61 42 58 39 56 35C52 38 47 40 42 40C38 40 34 39 31 43V38Z" fill="#2F2D3D"/>
  <rect x="56" y="29" width="8" height="5" rx="2.5" fill="#F2C44D"/>
  <circle cx="41.5" cy="42" r="1.6" fill="#3A2A22"/>
  <circle cx="54.5" cy="42" r="1.6" fill="#3A2A22"/>
  <path d="M43 49C45.6 50.9 50.4 50.9 53 49" stroke="#C16D73" stroke-width="2.2" stroke-linecap="round"/>
</svg>
