<svg width="96" height="96" viewBox="0 0 96 96" fill="none" xmlns="http://www.w3.org/2000/svg">
  <rect width="96" height="96" rx="28" fill="#FFF0ED"/>
  <rect x="20" y="59" width="56" height="24" rx="12" fill="#E58A7F"/>
  <circle cx="48" cy="41" r="17" fill="#F7D9CC"/>
  <path d="M31 37C31 27 39 21 48 21C57 21 65 27 65 37V47C61 46 58 44 56 41C53 43 49 44 44 44C39 44 35 43 31 47V37Z" fill="#47322F"/>
  <circle cx="41.5" cy="42.2" r="1.6" fill="#3A2A22"/>
  <circle cx="54.5" cy="42.2" r="1.6" fill="#3A2A22"/>
  <path d="M43 49C45.5 51.2 50.5 51.2 53 49" stroke="#C16D73" stroke-width="2.2" stroke-linecap="round"/>
</svg>
